<svg width="22" height="30" viewBox="0 0 22 30" fill="none" xmlns="http://www.w3.org/2000/svg">
<g clip-path="url(#clip0_20_794)" filter="url(#filter0_d_20_794)">
<path d="M7.58991 0.493625C7.63181 0.351077 7.71876 0.225938 7.83775 0.13695C7.95673 0.0479617 8.10134 -8.68813e-05 8.24991 1.17936e-07H13.7499C13.8588 8.27663e-05 13.9661 0.0260232 14.063 0.075686C14.1599 0.125349 14.2436 0.197314 14.3072 0.285656C14.3709 0.373999 14.4126 0.476193 14.429 0.583826C14.4454 0.691458 14.4361 0.801451 14.4017 0.90475L11.9542 8.25H17.1874C17.3162 8.24991 17.4423 8.28597 17.5516 8.35409C17.6609 8.4222 17.7488 8.51962 17.8054 8.63525C17.862 8.75089 17.885 8.8801 17.8718 9.00816C17.8585 9.13623 17.8096 9.258 17.7305 9.35963L8.10554 21.7346C8.00694 21.862 7.86674 21.9507 7.7094 21.9853C7.55207 22.0199 7.38759 21.9981 7.24468 21.9238C7.10176 21.8494 6.98948 21.7273 6.92743 21.5786C6.86538 21.43 6.8575 21.2642 6.90516 21.1104L9.38154 13.0625H4.81241C4.70553 13.0626 4.6001 13.0377 4.5045 12.9899C4.4089 12.9421 4.32577 12.8726 4.2617 12.7871C4.19764 12.7015 4.1544 12.6022 4.13543 12.497C4.11646 12.3918 4.12227 12.2837 4.15241 12.1811L7.58991 0.493625Z" fill="black" fill-opacity="0.25"/>
</g>
<defs>
<filter id="filter0_d_20_794" x="-4" y="0" width="30" height="30" filterUnits="userSpaceOnUse" color-interpolation-filters="sRGB">
<feFlood flood-opacity="0" result="BackgroundImageFix"/>
<feColorMatrix in="SourceAlpha" type="matrix" values="0 0 0 0 0 0 0 0 0 0 0 0 0 0 0 0 0 0 127 0" result="hardAlpha"/>
<feOffset dy="4"/>
<feGaussianBlur stdDeviation="2"/>
<feComposite in2="hardAlpha" operator="out"/>
<feColorMatrix type="matrix" values="0 0 0 0 0 0 0 0 0 0 0 0 0 0 0 0 0 0 0.25 0"/>
<feBlend mode="normal" in2="BackgroundImageFix" result="effect1_dropShadow_20_794"/>
<feBlend mode="normal" in="SourceGraphic" in2="effect1_dropShadow_20_794" result="shape"/>
</filter>
<clipPath id="clip0_20_794">
<rect width="22" height="22" fill="white"/>
</clipPath>
</defs>
</svg>
