
<svg xmlns="http://www.w3.org/2000/svg" width="24" height="24" fill="none"><g clip-path="url(#a)"><path fill="#000" fill-opacity=".25" d="M12.279 1.67a.75.75 0 0 0-.558 0L2.769 5.25l3.606 1.441L15.606 3l-3.327-1.33Zm5.346 2.138L8.394 7.5 12 8.941l9.231-3.691-3.606-1.442Zm4.875 2.55-9.75 3.9v11.884l9.75-3.9V6.357ZM11.25 22.143V10.257L1.5 6.358v11.885l9.75 3.9ZM11.165.276a2.25 2.25 0 0 1 1.67 0L23.53 4.554A.75.75 0 0 1 24 5.25v12.993a1.5 1.5 0 0 1-.944 1.392L12.28 23.946a.75.75 0 0 1-.558 0L.945 19.635A1.5 1.5 0 0 1 0 18.243V5.25a.75.75 0 0 1 .471-.696L11.165.276Z"/></g><defs><clipPath id="a"><path fill="#fff" d="M0 0h24v24H0z"/></clipPath></defs></svg>