<svg width="18" height="16" viewBox="0 0 18 16" fill="none" xmlns="http://www.w3.org/2000/svg">
<path d="M6.59375 3.82561H8.18145V11.0938C8.18145 11.1883 8.25879 11.2656 8.35332 11.2656H9.64238C9.73691 11.2656 9.81426 11.1883 9.81426 11.0938V3.82561H11.4062C11.5502 3.82561 11.6297 3.66018 11.5416 3.54846L9.13535 0.501981C9.11927 0.481438 9.09873 0.464824 9.07528 0.453399C9.05183 0.441973 9.02609 0.436035 9 0.436035C8.97391 0.436035 8.94817 0.441973 8.92472 0.453399C8.90127 0.464824 8.88073 0.481438 8.86465 0.501981L6.4584 3.54631C6.37031 3.66018 6.4498 3.82561 6.59375 3.82561ZM16.8633 10.4492H15.5742C15.4797 10.4492 15.4023 10.5266 15.4023 10.6211V13.9297H2.59766V10.6211C2.59766 10.5266 2.52031 10.4492 2.42578 10.4492H1.13672C1.04219 10.4492 0.964844 10.5266 0.964844 10.6211V14.875C0.964844 15.2553 1.27207 15.5625 1.65234 15.5625H16.3477C16.7279 15.5625 17.0352 15.2553 17.0352 14.875V10.6211C17.0352 10.5266 16.9578 10.4492 16.8633 10.4492Z" />
</svg>
